<svg style="display: none;" aria-hidden="true" xmlns="http://www.w3.org/2000/svg" xmlns:xlink="http://www.w3.org/1999/xlink"><symbol viewBox="0 0 24 24" id="svg-calendar"><path fill-rule="evenodd" clip-rule="evenodd" d="M2.33301 8.99967C2.33301 8.63148 2.63148 8.33301 2.99967 8.33301H20.9997C21.3679 8.33301 21.6663 8.63148 21.6663 8.99967V19.9997C21.6663 20.4417 21.4907 20.8656 21.1782 21.1782C20.8656 21.4907 20.4417 21.6663 19.9997 21.6663H3.99967C3.55765 21.6663 3.13372 21.4907 2.82116 21.1782C2.5086 20.8656 2.33301 20.4417 2.33301 19.9997V8.99967ZM3.66634 9.66634V19.9997C3.66634 20.0881 3.70146 20.1729 3.76397 20.2354C3.82648 20.2979 3.91127 20.333 3.99967 20.333H19.9997C20.0881 20.333 20.1729 20.2979 20.2354 20.2354C20.2979 20.1729 20.333 20.0881 20.333 19.9997V9.66634H3.66634Z"/><path fill-rule="evenodd" clip-rule="evenodd" d="M3.99967 4.66634C3.91127 4.66634 3.82648 4.70146 3.76397 4.76397C3.70146 4.82648 3.66634 4.91127 3.66634 4.99967V8.33301H20.333V4.99967C20.333 4.91127 20.2979 4.82648 20.2354 4.76397C20.1729 4.70146 20.0881 4.66634 19.9997 4.66634H3.99967ZM3.99967 3.33301H19.9997C20.4417 3.33301 20.8656 3.5086 21.1782 3.82116C21.4907 4.13372 21.6663 4.55765 21.6663 4.99967V8.99967C21.6663 9.36786 21.3679 9.66634 20.9997 9.66634H2.99967C2.63148 9.66634 2.33301 9.36786 2.33301 8.99967V4.99967C2.33301 4.55765 2.5086 4.13372 2.82116 3.82116C3.13372 3.5086 3.55765 3.33301 3.99967 3.33301Z"/><path fill-rule="evenodd" clip-rule="evenodd" d="M15.9997 2.33301C16.3679 2.33301 16.6663 2.63148 16.6663 2.99967V5.99967C16.6663 6.36786 16.3679 6.66634 15.9997 6.66634 15.6315 6.66634 15.333 6.36786 15.333 5.99967V2.99967C15.333 2.63148 15.6315 2.33301 15.9997 2.33301zM7.99967 2.33301C8.36786 2.33301 8.66634 2.63148 8.66634 2.99967V5.99967C8.66634 6.36786 8.36786 6.66634 7.99967 6.66634 7.63148 6.66634 7.33301 6.36786 7.33301 5.99967V2.99967C7.33301 2.63148 7.63148 2.33301 7.99967 2.33301z"/><path d="M8 12C8 12.5523 7.55228 13 7 13 6.44772 13 6 12.5523 6 12 6 11.4477 6.44772 11 7 11 7.55228 11 8 11.4477 8 12zM8 16C8 16.5523 7.55228 17 7 17 6.44772 17 6 16.5523 6 16 6 15.4477 6.44772 15 7 15 7.55228 15 8 15.4477 8 16zM13 12C13 12.5523 12.5523 13 12 13 11.4477 13 11 12.5523 11 12 11 11.4477 11.4477 11 12 11 12.5523 11 13 11.4477 13 12zM13 16C13 16.5523 12.5523 17 12 17 11.4477 17 11 16.5523 11 16 11 15.4477 11.4477 15 12 15 12.5523 15 13 15.4477 13 16zM18 12C18 12.5523 17.5523 13 17 13 16.4477 13 16 12.5523 16 12 16 11.4477 16.4477 11 17 11 17.5523 11 18 11.4477 18 12zM18 16C18 16.5523 17.5523 17 17 17 16.4477 17 16 16.5523 16 16 16 15.4477 16.4477 15 17 15 17.5523 15 18 15.4477 18 16z"/></symbol><symbol viewBox="0 0 24 24" fill="none" id="svg-calendar-bottom"><path d="M3 9H21V20C21 20.2652 20.8946 20.5196 20.7071 20.7071 20.5196 20.8946 20.2652 21 20 21H4C3.73478 21 3.48043 20.8946 3.29289 20.7071 3.10536 20.5196 3 20.2652 3 20V9zM4 4H20C20.2652 4 20.5196 4.10536 20.7071 4.29289 20.8946 4.48043 21 4.73478 21 5V9H3V5C3 4.73478 3.10536 4.48043 3.29289 4.29289 3.48043 4.10536 3.73478 4 4 4V4zM16 3V6M8 3V6" stroke="#000" stroke-width="1.333" stroke-linecap="round" stroke-linejoin="round"/><circle cx="7" cy="12" r="1" fill="#000"/><circle cx="7" cy="16" r="1" fill="#000"/><circle cx="12" cy="12" r="1" fill="#000"/><circle cx="12" cy="16" r="1" fill="#000"/><circle cx="17" cy="12" r="1" fill="#000"/><circle cx="17" cy="16" r="1" fill="#000"/></symbol><symbol viewBox="0 0 26 26" fill="none" id="svg-check-mark"><path d="M16.8726 9.08626L11.3522 14.6068L9.12721 12.3818C9.1272 12.3818 9.12719 12.3818 9.12718 12.3818C8.70259 11.957 8.014 11.957 7.5894 12.3818C7.16458 12.8064 7.16457 13.495 7.58937 13.9196C7.58938 13.9196 7.58939 13.9196 7.5894 13.9196L10.5833 16.9137L10.5834 16.9138C11.0081 17.3383 11.6965 17.3383 12.1213 16.9138L12.1213 16.9137L18.4106 10.6243C18.4106 10.6243 18.4106 10.6243 18.4106 10.6243C18.8354 10.1996 18.8354 9.51102 18.4106 9.08626C17.986 8.66163 17.2974 8.66167 16.8727 9.08623L16.8726 9.08626ZM13 25.15C19.7149 25.15 25.15 19.7158 25.15 13C25.15 6.28508 19.7158 0.85 13 0.85C6.28508 0.85 0.85 6.28415 0.85 13C0.85 19.7149 6.28415 25.15 13 25.15ZM13 3.025C18.5131 3.025 22.975 7.48623 22.975 13C22.975 18.5131 18.5138 22.975 13 22.975C7.48695 22.975 3.025 18.5138 3.025 13C3.025 7.48695 7.48623 3.025 13 3.025Z" fill="#198580" stroke="#198580" stroke-width=".3"/></symbol><symbol viewBox="0 0 32 32" fill="none" id="svg-clock"><g opacity=".8" clip-path="url(#dclip0_2115_0)" fill="#313131"><path d="M16 32C12.8355 32 9.74207 31.0616 7.11088 29.3035C4.4797 27.5454 2.42894 25.0466 1.21793 22.1229C0.00693261 19.1993 -0.309921 15.9823 0.307443 12.8786C0.924806 9.77486 2.44866 6.92394 4.6863 4.6863C6.92394 2.44866 9.77486 0.924806 12.8786 0.307443C15.9823 -0.309921 19.1993 0.00693261 22.1229 1.21793C25.0466 2.42894 27.5454 4.4797 29.3035 7.11088C31.0616 9.74207 32 12.8355 32 16C31.9952 20.242 30.3079 24.3088 27.3084 27.3084C24.3088 30.3079 20.242 31.9952 16 32ZM16 0.914293C13.0163 0.914293 10.0997 1.79905 7.61883 3.45669C5.138 5.11433 3.20443 7.4704 2.06262 10.227C0.920822 12.9835 0.622075 16.0167 1.20416 18.9431C1.78625 21.8694 3.22302 24.5574 5.3328 26.6672C7.44257 28.777 10.1306 30.2138 13.0569 30.7958C15.9833 31.3779 19.0165 31.0792 21.7731 29.9374C24.5296 28.7956 26.8857 26.862 28.5433 24.3812C30.201 21.9003 31.0857 18.9837 31.0857 16C31.0811 12.0004 29.4903 8.166 26.6621 5.33787C23.834 2.50975 19.9996 0.91889 16 0.914293Z"/><path d="M15.9998 5.74832C15.8851 5.74832 15.7751 5.70276 15.694 5.62167 15.6129 5.54057 15.5674 5.43058 15.5674 5.31589V4.43243C15.5674 4.31774 15.6129 4.20775 15.694 4.12666 15.7751 4.04556 15.8851 4 15.9998 4 16.1145 4 16.2245 4.04556 16.3056 4.12666 16.3867 4.20775 16.4323 4.31774 16.4323 4.43243V5.31589C16.4323 5.43058 16.3867 5.54057 16.3056 5.62167 16.2245 5.70276 16.1145 5.74832 15.9998 5.74832zM15.9998 28.7483C15.8851 28.7483 15.7751 28.7028 15.694 28.6217 15.6129 28.5406 15.5674 28.4306 15.5674 28.3159V27.4324C15.5674 27.3177 15.6129 27.2078 15.694 27.1267 15.7751 27.0456 15.8851 27 15.9998 27 16.1145 27 16.2245 27.0456 16.3056 27.1267 16.3867 27.2078 16.4323 27.3177 16.4323 27.4324V28.3159C16.4323 28.4306 16.3867 28.5406 16.3056 28.6217 16.2245 28.7028 16.1145 28.7483 15.9998 28.7483zM23.4323 9.49504C23.3468 9.49502 23.2632 9.46965 23.1921 9.42213 23.121 9.37462 23.0656 9.30709 23.0329 9.22808 23.0002 9.14908 22.9916 9.06214 23.0083 8.97827 23.025 8.8944 23.0662 8.81736 23.1266 8.75688L23.751 8.13202C23.7909 8.09071 23.8386 8.05777 23.8914 8.03511 23.9442 8.01244 24.0009 8.00052 24.0583 8.00002 24.1157 7.99952 24.1727 8.01046 24.2258 8.0322 24.279 8.05394 24.3273 8.08605 24.3679 8.12666 24.4085 8.16726 24.4406 8.21554 24.4623 8.26869 24.4841 8.32183 24.495 8.37877 24.4945 8.43619 24.494 8.49361 24.4821 8.55035 24.4594 8.60311 24.4367 8.65587 24.4038 8.70359 24.3625 8.74348L23.7381 9.36834C23.657 9.44944 23.547 9.49502 23.4323 9.49504zM7.43234 24.4844C7.34683 24.4844 7.26324 24.459 7.19214 24.4115 7.12105 24.364 7.06563 24.2965 7.03291 24.2174 7.00019 24.1384 6.99163 24.0515 7.0083 23.9676 7.02498 23.8838 7.06615 23.8067 7.12661 23.7462L7.75104 23.1214C7.8326 23.0426 7.94184 22.999 8.05522 23 8.1686 23.001 8.27706 23.0465 8.35724 23.1267 8.43741 23.2068 8.48289 23.3153 8.48388 23.4287 8.48486 23.5421 8.44128 23.6513 8.36251 23.7328L7.73807 24.3577C7.65699 24.4388 7.54702 24.4844 7.43234 24.4844zM28.3163 16.4324H27.4324C27.3177 16.4324 27.2078 16.3869 27.1267 16.3058 27.0456 16.2247 27 16.1147 27 16 27 15.8853 27.0456 15.7753 27.1267 15.6942 27.2078 15.6131 27.3177 15.5676 27.4324 15.5676H28.3163C28.431 15.5676 28.541 15.6131 28.6221 15.6942 28.7032 15.7753 28.7488 15.8853 28.7488 16 28.7488 16.1147 28.7032 16.2247 28.6221 16.3058 28.541 16.3869 28.431 16.4324 28.3163 16.4324zM4.31632 16.4324H3.43243C3.31774 16.4324 3.20775 16.3869 3.12666 16.3058 3.04556 16.2247 3 16.1147 3 16 3 15.8853 3.04556 15.7753 3.12666 15.6942 3.20775 15.6131 3.31774 15.5676 3.43243 15.5676H4.31632C4.43101 15.5676 4.541 15.6131 4.6221 15.6942 4.70319 15.7753 4.74875 15.8853 4.74875 16 4.74875 16.1147 4.70319 16.2247 4.6221 16.3058 4.541 16.3869 4.43101 16.4324 4.31632 16.4324zM25.0516 23.4844C24.9369 23.4844 24.8269 23.4388 24.7458 23.3577L24.1214 22.7328C24.0426 22.6513 23.999 22.5421 24 22.4287 24.001 22.3153 24.0465 22.2068 24.1267 22.1267 24.2068 22.0465 24.3153 22.001 24.4287 22 24.5421 21.999 24.6513 22.0426 24.7329 22.1214L25.3573 22.7462C25.4178 22.8067 25.4589 22.8838 25.4756 22.9676 25.4923 23.0515 25.4837 23.1384 25.451 23.2174 25.4183 23.2965 25.3629 23.364 25.2918 23.4115 25.2207 23.459 25.1371 23.4844 25.0516 23.4844zM8.06218 9.49504C7.9475 9.49502 7.83752 9.44944 7.75645 9.36834L7.13202 8.74348C7.09071 8.70359 7.05777 8.65587 7.03511 8.60311 7.01244 8.55035 7.00052 8.49361 7.00002 8.43619 6.99952 8.37877 7.01046 8.32183 7.0322 8.26869 7.05394 8.21554 7.08605 8.16726 7.12666 8.12666 7.16726 8.08605 7.21554 8.05394 7.26868 8.0322 7.32183 8.01046 7.37877 7.99952 7.43619 8.00002 7.49361 8.00052 7.55035 8.01244 7.60311 8.03511 7.65587 8.05777 7.70358 8.09071 7.74347 8.13202L8.36791 8.75688C8.42836 8.81736 8.46953 8.8944 8.48621 8.97827 8.50289 9.06214 8.49433 9.14908 8.4616 9.22808 8.42888 9.30709 8.37347 9.37462 8.30237 9.42213 8.23128 9.46965 8.14769 9.49502 8.06218 9.49504zM13.6582 17.2973C13.5567 17.2973 13.4584 17.2616 13.3806 17.1965 13.3027 17.1314 13.2502 17.0409 13.2324 16.941 13.2145 16.8411 13.2323 16.7381 13.2827 16.65 13.3331 16.5619 13.4129 16.4944 13.5081 16.4592L15.5682 15.6973V9.94592C15.5682 9.83123 15.6138 9.72124 15.6949 9.64014 15.776 9.55905 15.886 9.51349 16.0007 9.51349 16.1153 9.51349 16.2253 9.55905 16.3064 9.64014 16.3875 9.72124 16.4331 9.83123 16.4331 9.94592V16C16.4331 16.0883 16.406 16.1746 16.3556 16.2471 16.3051 16.3196 16.2336 16.3749 16.1507 16.4056L13.8082 17.2704C13.7602 17.2881 13.7094 17.2972 13.6582 17.2973z"/></g><defs><clipPath id="dclip0_2115_0"><path fill="#fff" d="M0 0H32V32H0z"/></clipPath></defs></symbol><symbol viewBox="0 0 754 6889" fill="none" id="svg-day-decor"><path d="M28.0065 1C19.1731 9.5 1.40647 32.4 1.00647 56C0.606475 79.6 18.8398 122.5 28.0065 141C36.5066 161.5 52.5068 212.5 48.5068 252.5C44.5068 292.5 27.5068 435.5 19.5068 502C18.8402 520.667 25.1068 571.3 55.5068 624.5C85.9068 677.7 34.5 820.5 17.0068 891C13.0068 908.833 9.40684 957.1 27.0068 1007.5C44.6068 1057.9 44.6735 1123.5 42.5068 1150C38.6735 1176.5 48.5068 1249.5 118.507 1329.5C188.507 1409.5 286.674 1478.5 327.007 1503C372.007 1520 467.807 1568 491.007 1624C514.207 1680 477.674 1765.67 456.507 1801.5C457.674 1841.5 484.607 1936.5 583.007 1996.5C681.407 2056.5 722.674 2126.83 731.007 2154.5C736.507 2185.5 716.225 2265.34 731.007 2359C744.5 2444.5 723.5 2541 704.507 2541C656.507 2541 729 2689 656.507 2718.5C597.636 2742.46 593 2900.5 567 2952C471 3091 305.707 2918.3 226.507 2893.5C147.307 2868.7 77.5068 2954.5 52.5068 3000.5C41.0068 3051.83 1.25063 3175.04 16.5068 3249.5C33 3330 22 3390.5 40.5068 3399C63.5 3433.5 38.7214 3517.03 19 3561.5C-4.50684 3614.5 16.6735 3707.5 40.5068 3736.5C48.6735 3741.67 16.8881 3820.34 10 3832.5C-7 3862.5 82.5 3872 113 3902C123 3942 253.6 3945.2 336 3902C418.4 3858.8 451 3889.67 461 3889.5C489 3889.67 543.2 3768 572 3812C600.8 3856 667.84 3837.17 680.507 3830C704.674 3826 749.407 3839.9 735.007 3927.5C720.607 4015.1 730.5 4064 737.5 4085C745.276 4108.33 771.807 4156.8 727.007 4208C682.207 4259.2 673.674 4319.67 675.007 4343.5C675.34 4364 658.807 4404.1 590.007 4400.5C521.207 4396.9 452.674 4380.33 427.007 4372.5C406.007 4369.83 351.307 4375.7 300.507 4420.5C249.707 4465.3 173.007 4462.17 141.007 4455C120.507 4449 74.8068 4447.5 56.0068 4489.5C37.2068 4531.5 27.1735 4623.33 24.5068 4664C24.0068 4670 26.3068 4688.9 39.5068 4716.5C52.7068 4744.1 33.5 4796 26.5 4815.5C14.5 4846.83 -15.9 4917.2 16.5 4968C48.9 5018.8 40.5 5077 35.5 5100.5C28.8333 5118 38.1068 5162.5 10.5068 5198.5C-17.0932 5234.5 26.0068 5328.83 51.0068 5371.5C53.8402 5392.5 54.6068 5442.1 35.0068 5472.5C15.4068 5502.9 15.5 5609 29 5660C31.8333 5689.17 10.4622 5772.94 35.0068 5854C61.5 5941.5 31 6044.5 15.5 6118C-24 6234 278.6 6292.7 315 6355.5C351.4 6418.3 514.674 6376.17 525.007 6394.5C534.174 6407.67 562.407 6436.1 602.007 6444.5C641.607 6452.9 596.667 6590.83 615.5 6603C617.5 6624.67 604.7 6668.2 537.5 6669C453.5 6670 417 6685 419.5 6697C422 6709 489 6705.5 478 6728.5C467 6751.5 370.5 6776 370.5 6795.5C370.5 6811.1 396.5 6827.33 409.5 6833.5C416.5 6836 428.9 6850.4 422.5 6888" stroke="#6C6C6C" stroke-width="2" stroke-dasharray="3 8"/></symbol><symbol viewBox="0 0 16 14" id="svg-email"><path d="M14.5938 0.90625H1.40625C0.631813 0.90625 0 1.53737 0 2.3125V11.6875C0 12.46 0.629 13.0938 1.40625 13.0938H14.5938C15.3663 13.0938 16 12.4648 16 11.6875V2.3125C16 1.54 15.371 0.90625 14.5938 0.90625ZM14.3996 1.84375L8.02981 8.21353L1.60497 1.84375H14.3996ZM0.9375 11.4934V2.50216L5.45247 6.97841L0.9375 11.4934ZM1.60041 12.1562L6.11822 7.63844L7.70125 9.20788C7.8845 9.38956 8.18022 9.38897 8.36272 9.20644L9.90625 7.66291L14.3996 12.1562H1.60041ZM15.0625 11.4933L10.5692 7L15.0625 2.50662V11.4933Z"/></symbol><symbol viewBox="0 0 168 38" fill="none" id="svg-footer-logo"><g clip-path="url(#gclip0_3578_201)" fill="#fff"><path d="M66.6074 14V.729187H70.3535C71.508.729187 72.5289.984391 73.416 1.49482 74.3032 2.00522 74.9868 2.73136 75.4668 3.6732 75.9529 4.61503 76.199 5.69664 76.2051 6.91799V7.76565C76.2051 9.01742 75.962 10.1142 75.4759 11.056 74.9959 11.9979 74.3062 12.721 73.4069 13.2253 72.5137 13.7296 71.4716 13.9879 70.2806 14H66.6074zM68.3574 2.16929V12.5691H70.1986C71.5475 12.5691 72.5957 12.1498 73.3431 11.3112 74.0966 10.4726 74.4733 9.27868 74.4733 7.72919V6.95445C74.4733 5.44751 74.1178 4.2778 73.4069 3.44533 72.702 2.60679 71.6994 2.18145 70.3991 2.16929H68.3574zM83.7246 8.63157H80.6074V14H78.8483V.729187H83.2416C84.7363.729187 85.8848 1.06946 86.6869 1.75002 87.495 2.43058 87.8991 3.42103 87.8991 4.72137 87.8991 5.54776 87.6743 6.26781 87.2246 6.88153 86.7811 7.49525 86.1613 7.95404 85.3652 8.25784L88.4824 13.8907V14H86.6048L83.7246 8.63157zM80.6074 7.20054H83.2962C84.1652 7.20054 84.8548 6.97572 85.3652 6.52606 85.8817 6.07641 86.14 5.47484 86.14 4.72137 86.14 3.90106 85.8939 3.27215 85.4017 2.83465 84.9156 2.39715 84.2108 2.17537 83.2871 2.16929H80.6074V7.20054zM97.8613 7.86592H92.11V12.5691H98.7911V14H90.36V.729187H98.6999V2.16929H92.11V6.43492H97.8613V7.86592zM108.298 10.5365H102.738L101.489 14H99.6843L104.752.729187H106.283L111.36 14H109.564L108.298 10.5365zM103.266 9.09637H107.778L105.518 2.88934 103.266 9.09637zM115.407.729187L119.745 11.5573 124.084.729187H126.354V14H124.604V8.83208L124.768 3.25392 120.411 14H119.071L114.723 3.28127 114.896 8.83208V14H113.146V.729187H115.407zM132.816 7.82944L131.193 9.51566V14H129.443V.729187H131.193V7.29169L137.09.729187H139.205L133.982 6.58987 139.615 14H137.519L132.816 7.82944zM148.475 10.5365H142.915L141.666 14H139.861L144.929.729187H146.46L151.537 14H149.742L148.475 10.5365zM143.443 9.09637H147.955L145.695 2.88934 143.443 9.09637zM155.584.729187L159.923 11.5573 164.261.729187H166.531V14H164.781V8.83208L164.945 3.25392 160.588 14H159.248L154.901 3.28127 155.073 8.83208V14H153.323V.729187H155.584zM77.0404 24.178H72.7748V36.0087H71.0339V24.178H66.7773V22.7379H77.0404V24.178zM88.9623 29.8016C88.9623 31.102 88.7435 32.2383 88.306 33.2105 87.8685 34.1766 87.2488 34.915 86.4466 35.4254 85.6446 35.9357 84.7088 36.191 83.6393 36.191 82.5942 36.191 81.6676 35.9357 80.8594 35.4254 80.0513 34.9088 79.4224 34.1766 78.9727 33.2288 78.5291 32.2747 78.3013 31.1718 78.2891 29.9202V28.9631C78.2891 27.6871 78.5109 26.5599 78.9545 25.5816 79.398 24.6033 80.0239 23.8559 80.8321 23.3394 81.6463 22.8169 82.576 22.5555 83.6211 22.5555 84.6845 22.5555 85.6203 22.8138 86.4284 23.3303 87.2426 23.8407 87.8685 24.5851 88.306 25.5634 88.7435 26.5356 88.9623 27.6688 88.9623 28.9631V29.8016zM87.2214 28.9449C87.2214 27.3711 86.9054 26.165 86.2735 25.3264 85.6415 24.4818 84.7574 24.0595 83.6211 24.0595 82.5152 24.0595 81.6432 24.4818 81.0052 25.3264 80.3733 26.165 80.0482 27.3316 80.03 28.8264V29.8016C80.03 31.3269 80.349 32.5269 80.987 33.4019 81.6311 34.2708 82.5152 34.7053 83.6393 34.7053 84.7696 34.7053 85.6446 34.2952 86.2643 33.4748 86.8841 32.6485 87.2032 31.4666 87.2214 29.9293V28.9449zM100.93 22.7379V31.7613C100.924 33.013 100.529 34.0369 99.7449 34.8329 98.9671 35.6289 97.9098 36.0755 96.5729 36.1727L96.1081 36.191C94.6559 36.191 93.4983 35.7991 92.6354 35.0152 91.7726 34.2313 91.3351 33.1528 91.3229 31.7795V22.7379H93.0547V31.7248C93.0547 32.6849 93.319 33.4323 93.8477 33.967 94.3763 34.4957 95.1298 34.76 96.1081 34.76 97.0985 34.76 97.8551 34.4957 98.3776 33.967 98.9063 33.4384 99.1706 32.694 99.1706 31.7339V22.7379H100.93zM108.559 30.6402H105.441V36.0087H103.682V22.7379H108.076C109.57 22.7379 110.719 23.0781 111.521 23.7587 112.329 24.4392 112.733 25.4297 112.733 26.73 112.733 27.5564 112.508 28.2765 112.059 28.8902 111.615 29.5039 110.995 29.9627 110.199 30.2665L113.316 35.8993V36.0087H111.439L108.559 30.6402zM105.441 29.2092H108.13C108.999 29.2092 109.689 28.9844 110.199 28.5347 110.716 28.0851 110.974 27.4835 110.974 26.73 110.974 25.9097 110.728 25.2808 110.236 24.8433 109.75 24.4058 109.045 24.1841 108.121 24.178H105.441V29.2092z"/></g><g clip-path="url(#gclip1_3578_201)"><path fill-rule="evenodd" clip-rule="evenodd" d="M0.607422 31.8498V2.02042C0.607422 0.904576 1.51337 0 2.63091 0H17.5682C19.0724 0 20.0508 1.5806 19.3781 2.92399L4.44077 32.7534C3.48586 34.6603 0.607422 33.9818 0.607422 31.8498ZM50.3852 31.8498V2.02042C50.3852 0.904576 49.4791 0 48.3617 0H33.4244C31.9202 0 30.9418 1.5806 31.6145 2.92399L46.5519 32.7534C47.5066 34.6603 50.3852 33.9818 50.3852 31.8498ZM26.5081 35.1554V5.32596C26.5081 3.19398 29.3865 2.51549 30.3414 4.42243L45.2787 34.2518C45.9513 35.5952 44.9732 37.1758 43.4689 37.1758H28.5315C27.414 37.1758 26.5081 36.2712 26.5081 35.1554ZM24.4846 5.32596V35.1554C24.4846 36.2712 23.5786 37.1758 22.4611 37.1758H7.52378C6.01956 37.1758 5.04121 35.5952 5.71389 34.2518L20.6512 4.42243C21.6061 2.51549 24.4846 3.19398 24.4846 5.32596Z" fill="#fff"/></g><defs><clipPath id="gclip0_3578_201"><path fill="#fff" transform="translate(66)" d="M0 0H101.111V36.556H0z"/></clipPath><clipPath id="gclip1_3578_201"><path fill="#fff" d="M0 0H49.778V37.176H0z"/></clipPath></defs></symbol><symbol viewBox="0 0 33 33" id="svg-footer-play"><path fill-rule="evenodd" clip-rule="evenodd" d="M31.8955 16.4478C31.8955 24.9794 24.9793 31.8956 16.4477 31.8956C7.9161 31.8956 0.99987 24.9794 0.99987 16.4478C0.99987 7.91623 7.9161 1 16.4477 1C24.9793 1 31.8955 7.91623 31.8955 16.4478ZM16.4477 0C25.5316 0 32.8955 7.36394 32.8955 16.4478C32.8955 25.5317 25.5316 32.8956 16.4477 32.8956C7.36381 32.8956 -0.0001297 25.5317 -0.0001297 16.4478C-0.0001297 7.36394 7.36381 0 16.4477 0Z"/><path fill-rule="evenodd" clip-rule="evenodd" d="M13.6173 10.8107C13.7814 10.7241 13.9799 10.7355 14.1329 10.8403L22.3568 16.4672C22.493 16.5604 22.5745 16.7148 22.5745 16.8798C22.5745 17.0449 22.493 17.1993 22.3568 17.2925L14.1329 22.9194C13.9799 23.0241 13.7814 23.0355 13.6173 22.949C13.4533 22.8624 13.3506 22.6922 13.3506 22.5067V11.2529C13.3506 11.0675 13.4533 10.8972 13.6173 10.8107ZM14.3506 12.2009V21.5588L21.189 16.8798L14.3506 12.2009Z"/></symbol><symbol viewBox="0 0 32 32" fill="none" id="svg-hotels"><g opacity=".8" fill="#313131"><path d="M24.2164 30.4865H7.78399C7.66931 30.4865 7.55932 30.4409 7.47822 30.3598C7.39712 30.2787 7.35156 30.1687 7.35156 30.054V4.10809C7.35156 3.9934 7.39712 3.88341 7.47822 3.80232C7.55932 3.72122 7.66931 3.67566 7.78399 3.67566H24.2164C24.3311 3.67566 24.4411 3.72122 24.5222 3.80232C24.6033 3.88341 24.6489 3.9934 24.6489 4.10809V30.054C24.6489 30.1687 24.6033 30.2787 24.5222 30.3598C24.4411 30.4409 24.3311 30.4865 24.2164 30.4865ZM8.21643 29.6216H23.784V4.54052H8.21643V29.6216Z"/><path d="M20.7575 4.54052H11.244C11.1293 4.54052 11.0193 4.49496 10.9382 4.41386 10.8571 4.33276 10.8115 4.22277 10.8115 4.10808V1.94592C10.8115 1.83123 10.8571 1.72124 10.9382 1.64015 11.0193 1.55905 11.1293 1.51349 11.244 1.51349H20.7575C20.8721 1.51349 20.9821 1.55905 21.0632 1.64015 21.1443 1.72124 21.1899 1.83123 21.1899 1.94592V4.10808C21.1899 4.22277 21.1443 4.33276 21.0632 4.41386 20.9821 4.49496 20.8721 4.54052 20.7575 4.54052zM11.6764 3.67565H20.325V2.37835H11.6764V3.67565zM30.7021 30.4865H24.2156C24.1009 30.4865 23.991 30.4409 23.9099 30.3598 23.8288 30.2787 23.7832 30.1687 23.7832 30.0541V9.2973C23.7832 9.18261 23.8288 9.07262 23.9099 8.99152 23.991 8.91043 24.1009 8.86487 24.2156 8.86487H30.7021C30.8168 8.86487 30.9268 8.91043 31.0079 8.99152 31.089 9.07262 31.1345 9.18261 31.1345 9.2973V30.0541C31.1345 30.1687 31.089 30.2787 31.0079 30.3598 30.9268 30.4409 30.8168 30.4865 30.7021 30.4865zM24.6481 29.6216H30.2697V9.72973H24.6481V29.6216zM7.78415 30.4865H1.29767C1.18298 30.4865 1.07299 30.4409.991891 30.3598.910794 30.2787.865234 30.1687.865234 30.0541V9.2973C.865234 9.18261.910794 9.07262.991891 8.99152 1.07299 8.91043 1.18298 8.86487 1.29767 8.86487H7.78415C7.89884 8.86487 8.00883 8.91043 8.08993 8.99152 8.17103 9.07262 8.21659 9.18261 8.21659 9.2973V30.0541C8.21659 30.1687 8.17103 30.2787 8.08993 30.3598 8.00883 30.4409 7.89884 30.4865 7.78415 30.4865zM1.7301 29.6216H7.35172V9.72973H1.7301V29.6216zM20.4322 10.2703H18.5944C18.365 10.2703 18.145 10.1791 17.9828 10.0169 17.8206 9.85476 17.7295 9.63477 17.7295 9.4054V7.56756C17.7295 7.33819 17.8206 7.1182 17.9828 6.95601 18.145 6.79382 18.365 6.7027 18.5944 6.7027H20.4322C20.6616 6.7027 20.8816 6.79382 21.0437 6.95601 21.2059 7.1182 21.2971 7.33819 21.2971 7.56756V9.4054C21.2971 9.63477 21.2059 9.85476 21.0437 10.0169 20.8816 10.1791 20.6616 10.2703 20.4322 10.2703zM18.5944 7.56756V9.4054H20.4322V7.56756H18.5944zM13.4058 10.2703H11.568C11.3386 10.2703 11.1186 10.1791 10.9564 10.0169 10.7942 9.85476 10.7031 9.63477 10.7031 9.4054V7.56756C10.7031 7.33819 10.7942 7.1182 10.9564 6.95601 11.1186 6.79382 11.3386 6.7027 11.568 6.7027H13.4058C13.6352 6.7027 13.8552 6.79382 14.0174 6.95601 14.1796 7.1182 14.2707 7.33819 14.2707 7.56756V9.4054C14.2707 9.63477 14.1796 9.85476 14.0174 10.0169 13.8552 10.1791 13.6352 10.2703 13.4058 10.2703zM13.4058 7.56756H11.568V9.4054H13.4058V7.56756zM20.4322 15.6216H18.5944C18.365 15.6216 18.145 15.5305 17.9828 15.3683 17.8206 15.2061 17.7295 14.9862 17.7295 14.7568V12.9189C17.7295 12.6896 17.8206 12.4696 17.9828 12.3074 18.145 12.1452 18.365 12.0541 18.5944 12.0541H20.4322C20.6616 12.0541 20.8816 12.1452 21.0437 12.3074 21.2059 12.4696 21.2971 12.6896 21.2971 12.9189V14.7568C21.2971 14.9862 21.2059 15.2061 21.0437 15.3683 20.8816 15.5305 20.6616 15.6216 20.4322 15.6216zM18.5944 12.9189V14.7568H20.4322V12.9189H18.5944zM13.4058 15.6216H11.568C11.3386 15.6216 11.1186 15.5305 10.9564 15.3683 10.7942 15.2061 10.7031 14.9862 10.7031 14.7568V12.9189C10.7031 12.6896 10.7942 12.4696 10.9564 12.3074 11.1186 12.1452 11.3386 12.0541 11.568 12.0541H13.4058C13.6352 12.0541 13.8552 12.1452 14.0174 12.3074 14.1796 12.4696 14.2707 12.6896 14.2707 12.9189V14.7568C14.2707 14.9862 14.1796 15.2061 14.0174 15.3683 13.8552 15.5305 13.6352 15.6216 13.4058 15.6216zM13.4058 12.9185H11.568V14.7563H13.4058V12.9185zM20.4322 20.973H18.5944C18.365 20.973 18.145 20.8818 17.9828 20.7196 17.8206 20.5575 17.7295 20.3375 17.7295 20.1081V18.2703C17.7295 18.0409 17.8206 17.8209 17.9828 17.6587 18.145 17.4965 18.365 17.4054 18.5944 17.4054H20.4322C20.6616 17.4054 20.8816 17.4965 21.0437 17.6587 21.2059 17.8209 21.2971 18.0409 21.2971 18.2703V20.1081C21.2971 20.3375 21.2059 20.5575 21.0437 20.7196 20.8816 20.8818 20.6616 20.973 20.4322 20.973zM18.5944 18.2703V20.1081H20.4322V18.2703H18.5944zM13.4058 20.973H11.568C11.3386 20.973 11.1186 20.8818 10.9564 20.7196 10.7942 20.5575 10.7031 20.3375 10.7031 20.1081V18.2703C10.7031 18.0409 10.7942 17.8209 10.9564 17.6587 11.1186 17.4965 11.3386 17.4054 11.568 17.4054H13.4058C13.6352 17.4054 13.8552 17.4965 14.0174 17.6587 14.1796 17.8209 14.2707 18.0409 14.2707 18.2703V20.1081C14.2707 20.3375 14.1796 20.5575 14.0174 20.7196 13.8552 20.8818 13.6352 20.973 13.4058 20.973zM13.4058 18.2698H11.568V20.1081H13.4058V18.2698zM18.6843 30.4865H13.3152C13.2006 30.4865 13.0906 30.4409 13.0095 30.3598 12.9284 30.2787 12.8828 30.1687 12.8828 30.054V23.1351C12.8828 23.0204 12.9284 22.9105 13.0095 22.8294 13.0906 22.7483 13.2006 22.7027 13.3152 22.7027H18.6843C18.799 22.7027 18.909 22.7483 18.9901 22.8294 19.0712 22.9105 19.1168 23.0204 19.1168 23.1351V30.054C19.1168 30.1687 19.0712 30.2787 18.9901 30.3598 18.909 30.4409 18.799 30.4865 18.6843 30.4865zM13.7477 29.6216H18.2519V23.5676H13.7477V29.6216z"/><path d="M28.1347 15.7838H26.7838C26.5544 15.7838 26.3345 15.6927 26.1723 15.5305 26.0101 15.3683 25.9189 15.1483 25.9189 14.9189V13.5676C25.9189 13.3382 26.0101 13.1182 26.1723 12.956 26.3345 12.7938 26.5544 12.7027 26.7838 12.7027H28.1347C28.3641 12.7027 28.5841 12.7938 28.7463 12.956 28.9085 13.1182 28.9996 13.3382 28.9996 13.5676V14.9189C28.9996 15.1483 28.9085 15.3683 28.7463 15.5305 28.5841 15.6927 28.3641 15.7838 28.1347 15.7838zM26.7838 13.5676V14.9189H28.1347V13.5676H26.7838zM28.1347 21.216H26.7838C26.5544 21.216 26.3345 21.1249 26.1723 20.9627 26.0101 20.8005 25.9189 20.5805 25.9189 20.3512V19.0002C25.9189 18.7709 26.0101 18.5509 26.1723 18.3887 26.3345 18.2265 26.5544 18.1354 26.7838 18.1354H28.1347C28.3641 18.1354 28.5841 18.2265 28.7463 18.3887 28.9085 18.5509 28.9996 18.7709 28.9996 19.0002V20.3512C28.9996 20.5805 28.9085 20.8005 28.7463 20.9627 28.5841 21.1249 28.3641 21.216 28.1347 21.216zM26.7838 19.0002V20.3512H28.1347V19.0002H26.7838zM28.1347 26.6486H26.7838C26.5544 26.6486 26.3345 26.5575 26.1723 26.3953 26.0101 26.2331 25.9189 26.0132 25.9189 25.7838V24.4324C25.9189 24.2031 26.0101 23.9831 26.1723 23.8209 26.3345 23.6587 26.5544 23.5676 26.7838 23.5676H28.1347C28.3641 23.5676 28.5841 23.6587 28.7463 23.8209 28.9085 23.9831 28.9996 24.2031 28.9996 24.4324V25.7838C28.9996 26.0132 28.9085 26.2331 28.7463 26.3953 28.5841 26.5575 28.3641 26.6486 28.1347 26.6486zM26.7838 24.4324V25.7838H28.1347V24.4324H26.7838zM5.21579 15.7838H3.86487C3.63549 15.7838 3.41551 15.6927 3.25331 15.5305 3.09112 15.3683 3 15.1483 3 14.9189V13.5676C3 13.3382 3.09112 13.1182 3.25331 12.956 3.41551 12.7938 3.63549 12.7027 3.86487 12.7027H5.21579C5.44516 12.7027 5.66514 12.7938 5.82734 12.956 5.98953 13.1182 6.08065 13.3382 6.08065 13.5676V14.9189C6.08065 15.1483 5.98953 15.3683 5.82734 15.5305 5.66514 15.6927 5.44516 15.7838 5.21579 15.7838zM3.86487 13.5676V14.9189H5.21579V13.5676H3.86487zM5.21579 21.216H3.86487C3.63549 21.216 3.41551 21.1249 3.25331 20.9627 3.09112 20.8005 3 20.5805 3 20.3512V19.0002C3 18.7709 3.09112 18.5509 3.25331 18.3887 3.41551 18.2265 3.63549 18.1354 3.86487 18.1354H5.21579C5.44516 18.1354 5.66514 18.2265 5.82734 18.3887 5.98953 18.5509 6.08065 18.7709 6.08065 19.0002V20.3512C6.08065 20.5805 5.98953 20.8005 5.82734 20.9627 5.66514 21.1249 5.44516 21.216 5.21579 21.216zM3.86487 19.0002V20.3512H5.21579V19.0002H3.86487zM5.21579 26.6486H3.86487C3.63549 26.6486 3.41551 26.5575 3.25331 26.3953 3.09112 26.2331 3 26.0132 3 25.7838V24.4324C3 24.2031 3.09112 23.9831 3.25331 23.8209 3.41551 23.6587 3.63549 23.5676 3.86487 23.5676H5.21579C5.44516 23.5676 5.66514 23.6587 5.82734 23.8209 5.98953 23.9831 6.08065 24.2031 6.08065 24.4324V25.7838C6.08065 26.0132 5.98953 26.2331 5.82734 26.3953 5.66514 26.5575 5.44516 26.6486 5.21579 26.6486zM3.86487 24.4324V25.7838H5.21579V24.4324H3.86487z"/></g></symbol><symbol viewBox="0 0 32 32" fill="none" id="svg-level"><g opacity=".8" clip-path="url(#jclip0_477_73)" fill="#212121"><path d="M15.9995 9.59998C14.8213 9.59998 13.8662 10.5551 13.8662 11.7333V29.8666C13.8662 31.0448 14.8213 32 15.9995 32 17.1777 32 18.1329 31.0448 18.1329 29.8666V11.7333C18.1329 10.5551 17.1777 9.59998 15.9995 9.59998zM17.0662 29.8666C17.0662 30.4558 16.5887 30.9333 15.9995 30.9333 15.4104 30.9333 14.9329 30.4558 14.9329 29.8666V11.7333C14.9329 11.1442 15.4104 10.6666 15.9995 10.6666 16.5887 10.6666 17.0662 11.1442 17.0662 11.7333V29.8666zM9.06693 16C7.88873 16 6.93359 16.9551 6.93359 18.1333V29.8667C6.93359 31.0449 7.88873 32 9.06693 32 10.2451 32 11.2003 31.0449 11.2003 29.8667V18.1333C11.2003 16.9551 10.2451 16 9.06693 16zM10.1336 29.8667C10.1336 30.4558 9.65606 30.9333 9.06693 30.9333 8.47779 30.9333 8.00026 30.4558 8.00026 29.8667V18.1333C8.00026 17.5442 8.47779 17.0667 9.06693 17.0667 9.65606 17.0667 10.1336 17.5442 10.1336 18.1333V29.8667zM2.13333 23.4667C.955133 23.4667 0 24.4218 0 25.6V29.8667C0 31.0449.955133 32 2.13333 32 3.31153 32 4.26667 31.0449 4.26667 29.8667V25.6C4.26667 24.4218 3.31153 23.4667 2.13333 23.4667zM3.2 29.8667C3.2 30.4558 2.72247 30.9333 2.13333 30.9333 1.5442 30.9333 1.06667 30.4558 1.06667 29.8667V25.6C1.06667 25.0109 1.5442 24.5333 2.13333 24.5333 2.72247 24.5333 3.2 25.0109 3.2 25.6V29.8667zM22.9331 3.20001C21.7549 3.20001 20.7998 4.15515 20.7998 5.33335V29.8667C20.7998 31.0449 21.7549 32 22.9331 32 24.1113 32 25.0665 31.0449 25.0665 29.8667V5.33335C25.0665 4.15515 24.1113 3.20001 22.9331 3.20001zM23.9998 29.8667C23.9998 30.4558 23.5223 30.9333 22.9331 30.9333 22.344 30.9333 21.8665 30.4558 21.8665 29.8667V5.33335C21.8665 4.74421 22.344 4.26668 22.9331 4.26668 23.5223 4.26668 23.9998 4.74421 23.9998 5.33335V29.8667zM29.8667 0C28.6885 0 27.7334.955133 27.7334 2.13333V29.8667C27.7334 31.0449 28.6885 32 29.8667 32 31.0449 32 32.0001 31.0449 32.0001 29.8667V2.13333C32.0001.955133 31.0449 0 29.8667 0zM30.9334 29.8667C30.9334 30.4558 30.4559 30.9333 29.8667 30.9333 29.2776 30.9333 28.8001 30.4558 28.8001 29.8667V2.13333C28.8001 1.5442 29.2776 1.06667 29.8667 1.06667 30.4559 1.06667 30.9334 1.5442 30.9334 2.13333V29.8667z"/></g><defs><clipPath id="jclip0_477_73"><path fill="#fff" d="M0 0H32V32H0z"/></clipPath></defs></symbol><symbol viewBox="0 0 168 38" fill="none" id="svg-logo"><g clip-path="url(#kclip0_465_373)" fill="#275553"><path d="M66.6074 14V.729187H70.3535C71.508.729187 72.5289.984391 73.416 1.49482 74.3032 2.00522 74.9868 2.73136 75.4668 3.6732 75.9529 4.61503 76.199 5.69664 76.2051 6.91799V7.76565C76.2051 9.01742 75.962 10.1142 75.4759 11.056 74.9959 11.9979 74.3062 12.721 73.4069 13.2253 72.5137 13.7296 71.4716 13.9879 70.2806 14H66.6074zM68.3574 2.16929V12.5691H70.1986C71.5475 12.5691 72.5957 12.1498 73.3431 11.3112 74.0966 10.4726 74.4733 9.27868 74.4733 7.72919V6.95445C74.4733 5.44751 74.1178 4.2778 73.4069 3.44533 72.702 2.60679 71.6994 2.18145 70.3991 2.16929H68.3574zM83.7246 8.63157H80.6074V14H78.8483V.729187H83.2416C84.7363.729187 85.8848 1.06946 86.6869 1.75002 87.495 2.43058 87.8991 3.42103 87.8991 4.72137 87.8991 5.54776 87.6743 6.26781 87.2246 6.88153 86.7811 7.49525 86.1613 7.95404 85.3652 8.25784L88.4824 13.8907V14H86.6048L83.7246 8.63157zM80.6074 7.20054H83.2962C84.1652 7.20054 84.8548 6.97572 85.3652 6.52606 85.8817 6.07641 86.14 5.47484 86.14 4.72137 86.14 3.90106 85.8939 3.27215 85.4017 2.83465 84.9156 2.39715 84.2108 2.17537 83.2871 2.16929H80.6074V7.20054zM97.8613 7.86592H92.11V12.5691H98.7911V14H90.36V.729187H98.6999V2.16929H92.11V6.43492H97.8613V7.86592zM108.298 10.5365H102.738L101.489 14H99.6843L104.752.729187H106.283L111.36 14H109.564L108.298 10.5365zM103.266 9.09637H107.778L105.518 2.88934 103.266 9.09637zM115.407.729187L119.745 11.5573 124.084.729187H126.354V14H124.604V8.83208L124.768 3.25392 120.411 14H119.071L114.723 3.28127 114.896 8.83208V14H113.146V.729187H115.407zM132.816 7.82944L131.193 9.51566V14H129.443V.729187H131.193V7.29169L137.09.729187H139.205L133.982 6.58987 139.615 14H137.519L132.816 7.82944zM148.475 10.5365H142.915L141.666 14H139.861L144.929.729187H146.46L151.537 14H149.742L148.475 10.5365zM143.443 9.09637H147.955L145.695 2.88934 143.443 9.09637zM155.584.729187L159.923 11.5573 164.261.729187H166.531V14H164.781V8.83208L164.945 3.25392 160.588 14H159.248L154.901 3.28127 155.073 8.83208V14H153.323V.729187H155.584zM77.0404 24.178H72.7748V36.0087H71.0339V24.178H66.7773V22.7379H77.0404V24.178zM88.9623 29.8016C88.9623 31.102 88.7435 32.2383 88.306 33.2105 87.8685 34.1766 87.2488 34.915 86.4466 35.4254 85.6446 35.9357 84.7088 36.191 83.6393 36.191 82.5942 36.191 81.6676 35.9357 80.8594 35.4254 80.0513 34.9088 79.4224 34.1766 78.9727 33.2288 78.5291 32.2747 78.3013 31.1718 78.2891 29.9202V28.9631C78.2891 27.6871 78.5109 26.5599 78.9545 25.5816 79.398 24.6033 80.0239 23.8559 80.8321 23.3394 81.6463 22.8169 82.576 22.5555 83.6211 22.5555 84.6845 22.5555 85.6203 22.8138 86.4284 23.3303 87.2426 23.8407 87.8685 24.5851 88.306 25.5634 88.7435 26.5356 88.9623 27.6688 88.9623 28.9631V29.8016zM87.2214 28.9449C87.2214 27.3711 86.9054 26.165 86.2735 25.3264 85.6415 24.4818 84.7574 24.0595 83.6211 24.0595 82.5152 24.0595 81.6432 24.4818 81.0052 25.3264 80.3733 26.165 80.0482 27.3316 80.03 28.8264V29.8016C80.03 31.3269 80.349 32.5269 80.987 33.4019 81.6311 34.2708 82.5152 34.7053 83.6393 34.7053 84.7696 34.7053 85.6446 34.2952 86.2643 33.4748 86.8841 32.6485 87.2032 31.4666 87.2214 29.9293V28.9449zM100.93 22.7379V31.7613C100.924 33.013 100.529 34.0369 99.7449 34.8329 98.9671 35.6289 97.9098 36.0755 96.5729 36.1727L96.1081 36.191C94.6559 36.191 93.4983 35.7991 92.6354 35.0152 91.7726 34.2313 91.3351 33.1528 91.3229 31.7795V22.7379H93.0547V31.7248C93.0547 32.6849 93.319 33.4323 93.8477 33.967 94.3763 34.4957 95.1298 34.76 96.1081 34.76 97.0985 34.76 97.8551 34.4957 98.3776 33.967 98.9063 33.4384 99.1706 32.694 99.1706 31.7339V22.7379H100.93zM108.559 30.6402H105.441V36.0087H103.682V22.7379H108.076C109.57 22.7379 110.719 23.0781 111.521 23.7587 112.329 24.4392 112.733 25.4297 112.733 26.73 112.733 27.5564 112.508 28.2765 112.059 28.8902 111.615 29.5039 110.995 29.9627 110.199 30.2665L113.316 35.8993V36.0087H111.439L108.559 30.6402zM105.441 29.2092H108.13C108.999 29.2092 109.689 28.9844 110.199 28.5347 110.716 28.0851 110.974 27.4835 110.974 26.73 110.974 25.9097 110.728 25.2808 110.236 24.8433 109.75 24.4058 109.045 24.1841 108.121 24.178H105.441V29.2092z"/></g><g clip-path="url(#kclip1_465_373)"><path fill-rule="evenodd" clip-rule="evenodd" d="M0.607422 31.8498V2.02042C0.607422 0.904576 1.51337 0 2.63091 0H17.5682C19.0724 0 20.0508 1.5806 19.3781 2.92399L4.44077 32.7534C3.48586 34.6603 0.607422 33.9818 0.607422 31.8498ZM50.3852 31.8498V2.02042C50.3852 0.904576 49.4791 0 48.3617 0H33.4244C31.9202 0 30.9418 1.5806 31.6145 2.92399L46.5519 32.7534C47.5066 34.6603 50.3852 33.9818 50.3852 31.8498ZM26.5081 35.1554V5.32596C26.5081 3.19398 29.3865 2.51549 30.3414 4.42243L45.2787 34.2518C45.9513 35.5952 44.9732 37.1758 43.4689 37.1758H28.5315C27.414 37.1758 26.5081 36.2712 26.5081 35.1554ZM24.4846 5.32596V35.1554C24.4846 36.2712 23.5786 37.1758 22.4611 37.1758H7.52378C6.01956 37.1758 5.04121 35.5952 5.71389 34.2518L20.6512 4.42243C21.6061 2.51549 24.4846 3.19398 24.4846 5.32596Z" fill="#275553"/></g><defs><clipPath id="kclip0_465_373"><path fill="#fff" transform="translate(66)" d="M0 0H101.111V36.556H0z"/></clipPath><clipPath id="kclip1_465_373"><path fill="#fff" d="M0 0H49.778V37.176H0z"/></clipPath></defs></symbol><symbol viewBox="0 0 16 16" id="svg-map-mark"><path d="M8 0C4.89838 0 2.375 2.52338 2.375 5.625C2.375 6.67294 2.66528 7.69563 3.21466 8.58288L7.67981 15.7784C7.76534 15.9163 7.91603 16 8.07809 16C8.07934 16 8.08056 16 8.08181 16C8.24528 15.9987 8.39628 15.9124 8.48025 15.7721L12.8316 8.50688C13.3507 7.63838 13.625 6.64184 13.625 5.625C13.625 2.52338 11.1016 0 8 0ZM12.0271 8.02556L8.071 14.6308L4.01147 8.08894C3.55419 7.35044 3.30625 6.49844 3.30625 5.625C3.30625 3.04031 5.41531 0.93125 8 0.93125C10.5847 0.93125 12.6906 3.04031 12.6906 5.625C12.6906 6.47253 12.459 7.30275 12.0271 8.02556Z"/><path d="M8 2.8125C6.44919 2.8125 5.1875 4.07419 5.1875 5.625C5.1875 7.16591 6.42866 8.4375 8 8.4375C9.59072 8.4375 10.8125 7.14897 10.8125 5.625C10.8125 4.07419 9.55081 2.8125 8 2.8125ZM8 7.50625C6.96072 7.50625 6.11875 6.66147 6.11875 5.625C6.11875 4.59113 6.96613 3.74375 8 3.74375C9.03387 3.74375 9.87813 4.59113 9.87813 5.625C9.87813 6.64634 9.05575 7.50625 8 7.50625Z"/></symbol><symbol viewBox="0 0 26 26" fill="none" id="svg-rub"><path d="M25 13C25 19.633 19.6321 25 13 25C6.367 25 1 19.6321 1 13C1 6.367 6.36792 1 13 1C19.633 1 25 6.36792 25 13ZM23.125 13C23.125 7.40338 18.5959 2.875 13 2.875C7.40338 2.875 2.875 7.40411 2.875 13C2.875 18.5966 7.40411 23.125 13 23.125C18.5966 23.125 23.125 18.5959 23.125 13Z" fill="#212121"/><g clip-path="url(#mclip0_465_302)"><path d="M7.8187 17.0907H9.72783V18.7273C9.72783 18.8069 9.7533 18.8721 9.80456 18.9231C9.85568 18.9744 9.92102 19 10.0006 19H11.4238C11.4977 19 11.5616 18.9744 11.6156 18.9231C11.6696 18.8721 11.6965 18.8069 11.6965 18.7273V17.0907H16.0005C16.0799 17.0907 16.1453 17.0654 16.1965 17.0141C16.2478 16.9629 16.2733 16.8977 16.2733 16.818V15.7271C16.2733 15.6479 16.2478 15.5823 16.1965 15.5313C16.1454 15.4801 16.0799 15.4544 16.0005 15.4544H11.6964V14.4487H14.5941C15.7304 14.4487 16.6578 14.1024 17.3768 13.409C18.0954 12.7162 18.4549 11.8214 18.4549 10.7243C18.4549 9.62805 18.0954 8.73317 17.3768 8.03972C16.658 7.34695 15.7304 7 14.5941 7H10.0005C9.92086 7 9.85565 7.02562 9.80442 7.07659C9.7533 7.12785 9.72768 7.19348 9.72768 7.27266V12.6336H7.8187C7.7391 12.6336 7.67387 12.6605 7.62263 12.7145C7.57154 12.7685 7.5459 12.8324 7.5459 12.9062V14.176C7.5459 14.2556 7.57137 14.3208 7.62263 14.3721C7.67389 14.4234 7.73896 14.4487 7.8187 14.4487H9.72783V15.4544H7.8187C7.7391 15.4544 7.67387 15.48 7.62263 15.5313C7.57154 15.5823 7.5459 15.6478 7.5459 15.7271V16.818C7.5459 16.8977 7.57137 16.9629 7.62263 17.0141C7.67387 17.0654 7.73907 17.0907 7.8187 17.0907ZM11.6964 8.81552H14.4236C15.0258 8.81552 15.5116 8.9916 15.881 9.34386C16.2502 9.69615 16.435 10.1565 16.435 10.7245C16.435 11.2927 16.2502 11.7532 15.881 12.1051C15.5116 12.4577 15.0258 12.6337 14.4236 12.6337H11.6964V8.81552Z" fill="#000"/></g><defs><clipPath id="mclip0_465_302"><path fill="#fff" transform="translate(7 7)" d="M0 0H12V12H0z"/></clipPath></defs></symbol><symbol viewBox="0 0 15 15" id="svg-slider-arrow"><g clip-path="url(#nclip0_465_655)"><path d="M15 8C14.9998 8.00013 15.0002 7.99987 15 8L12 11C11.7877 11.1653 11.2114 11.1661 11 11C10.7887 10.8339 10.7877 10.1653 11 10L13 8L1 8C0.700413 8 3.4007e-07 7.2343 3.60554e-07 7C3.81037e-07 6.7657 0.700413 7 1 7L13 7L11 5C10.7877 4.83472 10.7887 4.16606 11 4C11.2114 3.83389 11.7877 3.83476 12 4L15 7C15.0002 7.00013 14.9998 6.99987 15 7C15.2124 7.16583 15.2118 7.83472 15 8Z"/></g><defs><clipPath id="nclip0_465_655"><path transform="matrix(1 0 0 -1 0 15)" d="M0 0H15V15H0z"/></clipPath></defs></symbol><symbol viewBox="0 0 19 20" id="svg-social-facebook"><path d="M14.3098 0H11.7209C8.57656 0 6.54594 1.98843 6.54594 5.06678V7.03521H3.94016C3.69688 7.03521 3.5 7.22377 3.5 7.45661V10.8421C3.5 11.0749 3.69688 11.2621 3.94016 11.2621H6.54594V19.58C6.54594 19.8114 6.74281 20 6.98469 20H10.655C10.8997 20 11.0966 19.8114 11.0966 19.58V11.2606H14.3084C14.5517 11.2606 14.7486 11.0735 14.7486 10.8407L14.75 7.45661C14.7494 7.40097 14.7376 7.34604 14.7154 7.2952C14.6931 7.24435 14.6609 7.19866 14.6206 7.16092C14.5363 7.0809 14.4252 7.03647 14.3098 7.03664H11.0966V5.42247C11.0966 4.47111 11.3342 3.98829 12.6336 3.98829L14.3098 3.98257C14.5517 3.98257 14.7486 3.79544 14.7486 3.5626V0.41997C14.75 0.188558 14.5531 0 14.3098 0Z"/></symbol><symbol viewBox="0 0 24 23" id="svg-social-facebook-online"><g clip-path="url(#pclip0_465_328)"><path d="M13.62 22.9551H9.76908C9.12585 22.9551 8.60261 22.4546 8.60261 21.8394V13.5317H6.35592C5.71269 13.5317 5.18945 13.031 5.18945 12.416V8.8561C5.18945 8.24088 5.71269 7.74043 6.35592 7.74043H8.60261V5.95776C8.60261 4.19019 9.18291 2.68636 10.2806 1.60912C11.3832 0.526955 12.9241 -0.0449219 14.7367 -0.0449219L17.6736 -0.0403595C18.3157 -0.0393066 18.8381 0.461151 18.8381 1.07532V4.38059C18.8381 4.9958 18.315 5.49626 17.672 5.49626L15.6946 5.49696C15.0915 5.49696 14.938 5.6126 14.9051 5.64805C14.851 5.70683 14.7866 5.87301 14.7866 6.33188V7.74025H17.5234C17.7294 7.74025 17.929 7.78886 18.1005 7.88046C18.4706 8.07822 18.7006 8.45216 18.7006 8.85628L18.6992 12.4162C18.6992 13.031 18.1759 13.5315 17.5327 13.5315H14.7866V21.8394C14.7866 22.4546 14.2632 22.9551 13.62 22.9551ZM10.0124 21.6067H13.3767V12.928C13.3767 12.5172 13.7262 12.1831 14.1555 12.1831H17.2894L17.2907 9.08878H14.1553C13.726 9.08878 13.3767 8.75468 13.3767 8.34389V6.33188C13.3767 5.8051 13.4327 5.20602 13.8484 4.75575C14.3507 4.21143 15.1424 4.14861 15.6942 4.14861L17.4283 4.1479V1.30765L14.7356 1.30344C11.8226 1.30344 10.0124 3.08698 10.0124 5.95776V8.34389C10.0124 8.7545 9.66303 9.08878 9.23373 9.08878H6.59919V12.1831H9.23373C9.66303 12.1831 10.0124 12.5172 10.0124 12.928V21.6067ZM17.6709 1.308H17.671H17.6709Z"/></g><defs><clipPath id="pclip0_465_328"><path d="M0 0H24V23H0z"/></clipPath></defs></symbol><symbol viewBox="0 0 20 20" id="svg-social-instagram"><path d="M5.71429 0H14.2857C15.8012 0 17.2547 0.602039 18.3263 1.67368C19.398 2.74531 20 4.19876 20 5.71429V14.2857C20 15.8012 19.398 17.2547 18.3263 18.3263C17.2547 19.398 15.8012 20 14.2857 20H5.71429C4.19876 20 2.74531 19.398 1.67368 18.3263C0.602039 17.2547 0 15.8012 0 14.2857V5.71429C0 4.19876 0.602039 2.74531 1.67368 1.67368C2.74531 0.602039 4.19876 0 5.71429 0ZM10 14.2857C11.1366 14.2857 12.2267 13.8342 13.0305 13.0305C13.8342 12.2267 14.2857 11.1366 14.2857 10C14.2857 8.86336 13.8342 7.77327 13.0305 6.96954C12.2267 6.16582 11.1366 5.71429 10 5.71429C8.86336 5.71429 7.77327 6.16582 6.96954 6.96954C6.16582 7.77327 5.71429 8.86336 5.71429 10C5.71429 11.1366 6.16582 12.2267 6.96954 13.0305C7.77327 13.8342 8.86336 14.2857 10 14.2857ZM14.92 6.34857C15.0903 6.35428 15.2599 6.32568 15.4189 6.26447C15.5779 6.20325 15.723 6.11067 15.8454 5.99224C15.9679 5.87382 16.0653 5.73196 16.1318 5.57511C16.1983 5.41827 16.2326 5.24965 16.2326 5.07929C16.2326 4.90892 16.1983 4.7403 16.1318 4.58346C16.0653 4.42661 15.9679 4.28476 15.8454 4.16633C15.723 4.0479 15.5779 3.95532 15.4189 3.89411C15.2599 3.83289 15.0903 3.80429 14.92 3.81C14.5907 3.82105 14.2786 3.95961 14.0496 4.19645C13.8206 4.43328 13.6926 4.74984 13.6926 5.07929C13.6926 5.40874 13.8206 5.7253 14.0496 5.96213C14.2786 6.19896 14.5907 6.33752 14.92 6.34857Z"/></symbol><symbol viewBox="0 0 23 23" id="svg-social-instagram-online"><g clip-path="url(#rclip0_465_334)"><path d="M16.3189 0H6.68114C2.99714 0 0 2.99714 0 6.68114V16.3189C0 20.0029 2.99714 23 6.68114 23H16.3189C20.0029 23 23 20.0029 23 16.3189V6.68114C23 2.99714 20.0029 0 16.3189 0ZM21.2031 16.3189C21.2031 19.0121 19.0121 21.2031 16.3189 21.2031H6.68114C3.98794 21.2031 1.79688 19.0121 1.79688 16.3189V6.68114C1.79688 3.98794 3.98794 1.79688 6.68114 1.79688H16.3189C19.0121 1.79688 21.2031 3.98794 21.2031 6.68114V16.3189Z"/><path d="M11.5 5.30078C8.08171 5.30078 5.30078 8.08171 5.30078 11.5 5.30078 14.9183 8.08171 17.6992 11.5 17.6992 14.9183 17.6992 17.6992 14.9183 17.6992 11.5 17.6992 8.08171 14.9183 5.30078 11.5 5.30078zM11.5 15.9023C9.07256 15.9023 7.09766 13.9274 7.09766 11.5 7.09766 9.07256 9.07256 7.09766 11.5 7.09766 13.9274 7.09766 15.9023 9.07256 15.9023 11.5 15.9023 13.9274 13.9274 15.9023 11.5 15.9023zM17.7891 6.10938C18.2853 6.10938 18.6875 5.70713 18.6875 5.21094 18.6875 4.71474 18.2853 4.3125 17.7891 4.3125 17.2929 4.3125 16.8906 4.71474 16.8906 5.21094 16.8906 5.70713 17.2929 6.10938 17.7891 6.10938z"/></g><defs><clipPath id="rclip0_465_334"><path d="M0 0H23V23H0z"/></clipPath></defs></symbol><symbol viewBox="0 0 31 30" fill="none" id="svg-social-vk"><g clip-path="url(#sclip0_465_332)"><path d="M16.1344 24.375C20.4744 24.375 18.9269 21.6275 19.2619 20.8375C19.2569 20.2475 19.2519 19.68 19.2719 19.335C19.5469 19.4125 20.1956 19.7412 21.5356 21.0437C23.6044 23.1312 24.1331 24.375 25.8044 24.375H28.8806C29.8556 24.375 30.3631 23.9713 30.6169 23.6325C30.8619 23.305 31.1019 22.73 30.8394 21.835C30.1531 19.68 26.1506 15.9587 25.9019 15.5662C25.9394 15.4937 25.9994 15.3975 26.0306 15.3475H26.0281C26.8181 14.3038 29.8331 9.78625 30.2769 7.97875C30.2781 7.97625 30.2794 7.9725 30.2794 7.96875C30.5194 7.14375 30.2994 6.60875 30.0719 6.30625C29.7294 5.85375 29.1844 5.625 28.4481 5.625H25.3719C24.3419 5.625 23.5606 6.14375 23.1656 7.09C22.5044 8.77125 20.6469 12.2288 19.2544 13.4525C19.2119 11.7188 19.2406 10.395 19.2631 9.41125C19.3081 7.4925 19.4531 5.625 17.4619 5.625H12.6269C11.3794 5.625 10.1856 6.9875 11.4781 8.605C12.6081 10.0225 11.8844 10.8125 12.1281 14.745C11.1781 13.7262 9.48812 10.975 8.29313 7.45875C7.95813 6.5075 7.45062 5.62625 6.02187 5.62625H2.94562C1.69812 5.62625 0.953125 6.30625 0.953125 7.445C0.953125 10.0025 6.61438 24.375 16.1344 24.375ZM6.02187 7.50125C6.29312 7.50125 6.32062 7.50125 6.52187 8.0725C7.74563 11.6762 10.4906 17.0088 12.4956 17.0088C14.0019 17.0088 14.0019 15.465 14.0019 14.8837L14.0006 10.2562C13.9181 8.725 13.3606 7.9625 12.9944 7.5L17.3794 7.505C17.3819 7.52625 17.3544 12.6237 17.3919 13.8587C17.3919 15.6125 18.7844 16.6175 20.9581 14.4175C23.2519 11.8288 24.8381 7.95875 24.9019 7.80125C24.9956 7.57625 25.0769 7.5 25.3719 7.5H28.4481H28.4606C28.4594 7.50375 28.4594 7.5075 28.4581 7.51125C28.1769 8.82375 25.4006 13.0063 24.4719 14.305C24.4569 14.325 24.4431 14.3463 24.4294 14.3675C24.0206 15.035 23.6881 15.7725 24.4856 16.81H24.4869C24.5594 16.8975 24.7481 17.1025 25.0231 17.3875C25.8781 18.27 28.8106 21.2875 29.0706 22.4875C28.8981 22.515 28.7106 22.495 25.8044 22.5012C25.1856 22.5012 24.7019 21.5763 22.8556 19.7137C21.1956 18.0988 20.1181 17.4388 19.1369 17.4388C17.2319 17.4388 17.3706 18.985 17.3881 20.855C17.3944 22.8825 17.3819 22.2413 17.3956 22.3688C17.2844 22.4125 16.9656 22.5 16.1344 22.5C8.20313 22.5 3.03813 9.91125 2.83937 7.505C2.90812 7.49875 3.85437 7.5025 6.02187 7.50125Z" fill="#000"/></g><defs><clipPath id="sclip0_465_332"><path fill="#fff" transform="translate(.953)" d="M0 0H30V30H0z"/></clipPath></defs></symbol><symbol viewBox="0 0 31 30" id="svg-social-vk-online"><g clip-path="url(#tclip0_465_332)"><path d="M16.1344 24.375C20.4744 24.375 18.9269 21.6275 19.2619 20.8375C19.2569 20.2475 19.2519 19.68 19.2719 19.335C19.5469 19.4125 20.1956 19.7412 21.5356 21.0437C23.6044 23.1312 24.1331 24.375 25.8044 24.375H28.8806C29.8556 24.375 30.3631 23.9713 30.6169 23.6325C30.8619 23.305 31.1019 22.73 30.8394 21.835C30.1531 19.68 26.1506 15.9587 25.9019 15.5662C25.9394 15.4937 25.9994 15.3975 26.0306 15.3475H26.0281C26.8181 14.3038 29.8331 9.78625 30.2769 7.97875C30.2781 7.97625 30.2794 7.9725 30.2794 7.96875C30.5194 7.14375 30.2994 6.60875 30.0719 6.30625C29.7294 5.85375 29.1844 5.625 28.4481 5.625H25.3719C24.3419 5.625 23.5606 6.14375 23.1656 7.09C22.5044 8.77125 20.6469 12.2288 19.2544 13.4525C19.2119 11.7188 19.2406 10.395 19.2631 9.41125C19.3081 7.4925 19.4531 5.625 17.4619 5.625H12.6269C11.3794 5.625 10.1856 6.9875 11.4781 8.605C12.6081 10.0225 11.8844 10.8125 12.1281 14.745C11.1781 13.7262 9.48812 10.975 8.29313 7.45875C7.95813 6.5075 7.45062 5.62625 6.02187 5.62625H2.94562C1.69812 5.62625 0.953125 6.30625 0.953125 7.445C0.953125 10.0025 6.61438 24.375 16.1344 24.375ZM6.02187 7.50125C6.29312 7.50125 6.32062 7.50125 6.52187 8.0725C7.74563 11.6762 10.4906 17.0088 12.4956 17.0088C14.0019 17.0088 14.0019 15.465 14.0019 14.8837L14.0006 10.2562C13.9181 8.725 13.3606 7.9625 12.9944 7.5L17.3794 7.505C17.3819 7.52625 17.3544 12.6237 17.3919 13.8587C17.3919 15.6125 18.7844 16.6175 20.9581 14.4175C23.2519 11.8288 24.8381 7.95875 24.9019 7.80125C24.9956 7.57625 25.0769 7.5 25.3719 7.5H28.4481H28.4606C28.4594 7.50375 28.4594 7.5075 28.4581 7.51125C28.1769 8.82375 25.4006 13.0063 24.4719 14.305C24.4569 14.325 24.4431 14.3463 24.4294 14.3675C24.0206 15.035 23.6881 15.7725 24.4856 16.81H24.4869C24.5594 16.8975 24.7481 17.1025 25.0231 17.3875C25.8781 18.27 28.8106 21.2875 29.0706 22.4875C28.8981 22.515 28.7106 22.495 25.8044 22.5012C25.1856 22.5012 24.7019 21.5763 22.8556 19.7137C21.1956 18.0988 20.1181 17.4388 19.1369 17.4388C17.2319 17.4388 17.3706 18.985 17.3881 20.855C17.3944 22.8825 17.3819 22.2413 17.3956 22.3688C17.2844 22.4125 16.9656 22.5 16.1344 22.5C8.20313 22.5 3.03813 9.91125 2.83937 7.505C2.90812 7.49875 3.85437 7.5025 6.02187 7.50125Z"/></g><defs><clipPath id="tclip0_465_332"><path transform="translate(.953)" d="M0 0H30V30H0z"/></clipPath></defs></symbol></svg>